<?xml version="1.0" encoding="utf-8"?>
<!-- Generator: Adobe Illustrator 25.0.0, SVG Export Plug-In . SVG Version: 6.00 Build 0)  -->
<svg version="1.1" id="Layer_2" xmlns="http://www.w3.org/2000/svg" xmlns:xlink="http://www.w3.org/1999/xlink" x="0px" y="0px"
	 viewBox="0 0 134 38" style="enable-background:new 0 0 134 38;" xml:space="preserve">
<style type="text/css">
	.st0{display:none;}
	.st1{display:inline;fill:#14BF98;}
	.st2{display:inline;fill:#FFFFFF;}
	.st3{fill:#FFFFFF;}
	.st4{fill:#E4BA2B;}
</style>
<g class="st0">
	<polygon class="st1" points="5.7,15.7 1.9,15.7 0,19 1.9,22.3 5.7,22.3 7.7,19 	"/>
	<polygon class="st1" points="10.3,7.8 6.5,7.8 4.6,11.1 6.5,14.4 10.3,14.4 12.2,11.1 	"/>
	<polygon class="st1" points="14.8,0 11,0 9.1,3.3 11,6.6 14.8,6.6 16.7,3.3 	"/>
	<polygon class="st1" points="23.9,0 20,0 18.1,3.3 20,6.6 23.9,6.6 25.8,3.3 	"/>
	<polygon class="st1" points="19.1,8.6 16.2,8.6 14.7,11.1 16.2,13.6 19.1,13.6 20.6,11.1 	"/>
	<polygon class="st1" points="28.2,8.6 25.2,8.6 23.8,11.1 25.2,13.6 28.2,13.6 29.6,11.1 	"/>
	<polygon class="st1" points="18.8,25.7 16.5,25.7 15.4,27.7 16.5,29.7 18.8,29.7 19.9,27.7 	"/>
	<polygon class="st1" points="27.9,25.7 25.6,25.7 24.4,27.7 25.6,29.7 27.9,29.7 29,27.7 	"/>
	<polygon class="st1" points="22.9,34.7 21,34.7 20,36.3 21,38 22.9,38 23.9,36.3 	"/>
	<polygon class="st1" points="32.9,0 29.1,0 27.2,3.3 29.1,6.6 32.9,6.6 34.9,3.3 	"/>
	<polygon class="st1" points="14.5,16.2 11.3,16.2 9.8,18.9 11.3,21.6 14.5,21.6 16,18.9 	"/>
	<polygon class="st1" points="32.6,16.2 29.5,16.2 27.9,18.9 29.5,21.6 32.6,21.6 34.2,18.9 	"/>
	<polygon class="st1" points="23.3,16.6 20.6,16.6 19.3,18.9 20.6,21.2 23.3,21.2 24.6,18.9 	"/>
	<polygon class="st1" points="37.4,7.8 33.6,7.8 31.7,11.1 33.6,14.4 37.4,14.4 39.3,11.1 	"/>
	<polygon class="st1" points="9.7,25 6.6,25 5,27.7 6.6,30.4 9.7,30.4 11.3,27.7 	"/>
	<polygon class="st1" points="12.4,34.9 10.6,34.9 9.7,36.5 10.6,38 12.4,38 13.3,36.5 	"/>
	<polygon class="st1" points="42,15.7 38.2,15.7 36.3,19 38.2,22.3 42,22.3 43.9,19 	"/>
	<polygon class="st1" points="37.3,25 34.2,25 32.6,27.7 34.2,30.4 37.3,30.4 38.9,27.7 	"/>
	<polygon class="st1" points="33.3,33.7 30.8,33.7 29.5,35.8 30.8,38 33.3,38 34.5,35.8 	"/>
	<path class="st2" d="M79,34.5h-6.1v-6.1H60.7v6.1h-6.1V16.3c0-1.6,0.3-3.2,1-4.7c0.6-1.4,1.5-2.8,2.6-3.9s2.4-2,3.9-2.6
		c3-1.3,6.5-1.3,9.5,0c2.9,1.2,5.3,3.6,6.5,6.5c0.6,1.5,1,3.1,1,4.7L79,34.5L79,34.5z M72.9,22.4v-6.1c0-0.8-0.2-1.6-0.5-2.4
		c-0.6-1.5-1.8-2.6-3.3-3.2c-1.5-0.6-3.2-0.6-4.7,0s-2.6,1.8-3.3,3.2c-0.3,0.7-0.5,1.6-0.5,2.4v6.1H72.9z"/>
	<path class="st2" d="M89.5,34.5h-5.8V11.8h1.4l1.9,2.7c1.9-1.7,4.3-2.7,6.9-2.7H99v5.8h-5.1c-0.6,0-1.2,0.1-1.7,0.3
		c-1.6,0.7-2.7,2.3-2.7,4.1L89.5,34.5L89.5,34.5z"/>
	<path class="st2" d="M108.6,5.6c0,0.5-0.1,1-0.3,1.5c-0.2,0.5-0.5,0.9-0.8,1.2c-0.4,0.4-0.8,0.6-1.2,0.8c-1,0.4-2.1,0.4-3,0
		s-1.7-1.1-2.1-2c-0.4-1-0.4-2,0-3c0.4-0.9,1.1-1.7,2.1-2.1s2.1-0.4,3,0c0.5,0.2,0.9,0.5,1.2,0.8c0.4,0.4,0.6,0.8,0.8,1.2
		C108.4,4.6,108.6,5.1,108.6,5.6z M107.6,34.5h-5.8V11.8h5.8V34.5z"/>
	<path class="st2" d="M134,34.5h-1.4l-2.3-3.1c-0.6,0.5-1.1,1-1.8,1.4c-0.6,0.4-1.3,0.8-1.9,1.1c-0.7,0.3-1.4,0.6-2.1,0.8
		s-1.4,0.3-2.2,0.3c-1.5,0-3.1-0.3-4.5-0.8s-2.6-1.3-3.7-2.3c-1.1-1.1-1.9-2.4-2.5-3.8c-0.6-1.6-0.9-3.3-0.9-5.1
		c0-1.7,0.3-3.3,0.9-4.9c0.6-1.4,1.4-2.7,2.5-3.8s2.3-1.9,3.7-2.5c1.4-0.6,3-0.9,4.5-0.9c0.7,0,1.5,0.1,2.2,0.3s1.4,0.4,2.1,0.8
		c0.7,0.3,1.3,0.7,1.9,1.1c0.6,0.4,1.2,0.9,1.7,1.4l2.3-2.7h1.4v22.7H134z M128.2,23c0-0.8-0.2-1.6-0.5-2.3c-0.3-0.7-0.7-1.4-1.2-2
		s-1.1-1-1.8-1.4c-0.7-0.3-1.5-0.5-2.2-0.5c-0.8,0-1.5,0.1-2.2,0.4s-1.3,0.7-1.8,1.2c-0.5,0.6-1,1.2-1.2,1.9
		c-0.3,0.8-0.5,1.7-0.4,2.6c0,0.9,0.1,1.8,0.4,2.6c0.3,0.7,0.7,1.4,1.2,1.9s1.1,0.9,1.8,1.2c0.7,0.3,1.5,0.4,2.2,0.4
		c0.8,0,1.5-0.2,2.2-0.5s1.3-0.8,1.8-1.4s0.9-1.2,1.2-2C128,24.5,128.2,23.8,128.2,23z"/>
</g>
<g>
	<path class="st3" d="M28.8,17.2c0,1,0,2,0,3c0,1.1-0.4,1.8-1.3,2.3c-1.3,0.7-2.6,1-4.1,1.2c-2,0.2-4,0.1-6-0.5
		c-4.1-1.3-6.5-4.5-6.6-8.9c0-2,0.3-3.9,1.4-5.7c1.6-2.5,4-3.9,6.9-4.4c1.8-0.3,3.6-0.3,5.4,0.1c0.9,0.2,1.7,0.6,2.4,1.1
		c0.9,0.8,1.2,2,0.8,3.1c-0.3,0.8-1,1.1-1.8,0.9c-0.4-0.1-0.8-0.3-1.1-0.4c-1.5-0.6-3-0.7-4.5-0.3c-2.2,0.5-3.6,2.2-3.8,4.6
		c-0.1,0.8,0,1.6,0.2,2.3c0.5,2,2,3.4,4.1,3.6c0.7,0.1,1.4,0.1,2-0.1c0.6-0.2,0.6-0.2,0.6-0.8c0-0.5,0-1.1,0-1.6
		c0-0.3-0.2-0.5-0.5-0.5c-0.4,0-0.8,0-1.2,0c-1.5,0-2-0.6-2.1-2.1c0-0.2,0-0.3,0-0.5c0.1-1.1,0.6-1.8,1.8-1.8c1.8-0.1,3.6-0.1,5.4,0
		c1.3,0,1.9,0.8,1.9,2.1C28.8,15.1,28.8,16.1,28.8,17.2z"/>
	<path class="st3" d="M102.9,12.7c0,2.4,0,4.8,0,7.2c0,1.2-0.5,2.1-1.5,2.6c-3,1.6-6.1,1.9-9.3,0.7c-2.8-1-4.3-3.1-4.7-6
		c-0.2-1.1-0.1-2.3,0.1-3.4c0.6-3.3,3-5.5,6.4-5.9c1-0.1,2-0.1,3,0c0.5,0.1,0.5,0,0.5-0.4c0-0.8,0-1.7,0-2.5c0-1.6,0.5-2.1,2.2-2.1
		c0.5,0,1.1,0,1.6,0.1c1,0.3,1.5,0.8,1.6,1.8c0,0.3,0,0.6,0,0.9C102.9,8,102.9,10.4,102.9,12.7z M97.5,15.7
		C97.5,15.7,97.5,15.7,97.5,15.7c0-0.9,0-1.9,0-2.8c0-0.4-0.1-0.6-0.5-0.7c-1.7-0.6-3.6,0.4-4,2.2c-0.2,0.9-0.2,1.9,0,2.8
		c0.5,2.1,2.1,2.6,3.7,2.3c0.6-0.1,0.8-0.4,0.8-1C97.5,17.5,97.5,16.6,97.5,15.7z"/>
	<path class="st3" d="M70,16.7c0,1.2,0,2.3,0,3.5c0,0.9-0.4,1.6-1.1,2.1c-0.7,0.5-1.5,0.9-2.3,1.1c-2.2,0.5-4.4,0.6-6.6,0.2
		c-0.4-0.1-0.8-0.2-1.2-0.3c-2.8-1-3.5-3-3.2-5.5c0.2-1.5,1.1-2.5,2.5-3.1c1.2-0.5,2.6-0.6,3.9-0.8c0.7-0.1,1.5-0.1,2.2-0.3
		c0.5-0.1,0.6-0.3,0.4-0.7c-0.3-0.5-0.7-0.7-1.2-0.8c-1.3-0.3-2.6-0.2-3.9,0.1c-0.4,0.1-0.9,0.2-1.3,0.3c-0.7,0.1-1.1-0.1-1.4-0.8
		c-0.5-1.1-0.2-2.3,0.9-3c0.6-0.3,1.2-0.5,1.8-0.6c2-0.4,3.9-0.4,5.9,0c1.4,0.3,2.6,0.8,3.6,1.9c0.8,0.9,1.2,2.1,1.2,3.3
		C70,14.4,70,15.5,70,16.7C70,16.7,70,16.7,70,16.7z M62.9,19.8c0.2,0,0.5,0,0.8,0c0.9-0.1,1-0.2,1-1.1c0-0.3,0-0.6,0-0.9
		c0-0.3-0.2-0.5-0.5-0.4c-0.9,0.1-1.8,0.1-2.6,0.3c-0.6,0.2-0.8,0.5-0.8,1c0,0.5,0.2,0.8,0.7,1.1C62,19.8,62.4,19.8,62.9,19.8z"/>
	<path class="st3" d="M54.4,16.6c0,1.2,0,2.3,0,3.5c0,1-0.4,1.7-1.1,2.2c-0.7,0.5-1.5,0.9-2.4,1.1c-2.3,0.5-4.5,0.6-6.8,0.1
		c-0.8-0.2-1.5-0.5-2.2-0.9c-1.2-0.8-1.8-2-1.9-3.5c0-0.4,0-0.8,0-1.2c0.2-1.6,1.1-2.7,2.5-3.3c1.2-0.5,2.6-0.6,3.9-0.8
		c0.7-0.1,1.5-0.1,2.2-0.3c0.5-0.1,0.6-0.3,0.4-0.8c-0.2-0.4-0.6-0.6-1-0.7c-1-0.3-2-0.2-3-0.1c-0.7,0.1-1.4,0.3-2.1,0.4
		c-1.2,0.3-1.7-0.5-1.9-1.4c-0.2-1.2,0.2-2,1.3-2.5c0.6-0.3,1.2-0.5,1.9-0.6C46,7.7,47.9,7.6,49.8,8c1.5,0.3,2.8,0.9,3.7,2.2
		c0.7,0.9,0.9,1.9,0.9,3C54.5,14.3,54.4,15.5,54.4,16.6C54.4,16.6,54.4,16.6,54.4,16.6z M47.3,19.8c0.5,0,0.9,0,1.4-0.1
		c0.3-0.1,0.5-0.3,0.5-0.6c0-0.4,0-0.9,0-1.3c0-0.3-0.1-0.5-0.4-0.5c-0.9,0-1.8,0.1-2.6,0.3c-0.6,0.2-0.8,0.5-0.8,1
		c0,0.5,0.3,0.9,0.8,1.1C46.5,19.8,46.9,19.8,47.3,19.8z"/>
	<path class="st3" d="M71.8,16.5c0-1.4,0-2.8,0-4.3c0-1.4,0.6-2.4,1.8-3C75.7,8,78,7.6,80.5,7.8c0.6,0,1.2,0.1,1.7,0.3
		c2.9,0.7,4.4,2.5,4.5,5.5c0.1,2.7,0,5.4,0,8.1c0,0.2,0,0.3,0,0.5c-0.2,1-0.6,1.5-1.7,1.5c-0.7,0-1.4,0-2.1-0.2
		c-0.9-0.2-1.4-0.7-1.5-1.6c-0.1-0.4-0.1-0.8-0.1-1.2c0-2.1,0-4.2,0-6.2c0-0.3,0-0.5,0-0.8c-0.1-0.9-0.6-1.4-1.5-1.6
		c-0.6-0.1-1.3,0-1.9,0.2c-0.4,0.1-0.6,0.4-0.6,0.8c0,0.5,0,1.1,0,1.6c0,2.2,0,4.4,0,6.6c0,1.7-0.6,2.3-2.3,2.2
		c-0.5,0-1-0.1-1.4-0.2c-0.9-0.2-1.5-0.7-1.6-1.7c-0.1-0.4-0.1-0.7-0.1-1.1c0,0,0-0.1,0-0.1C71.8,19.3,71.8,17.9,71.8,16.5z"/>
	<path class="st3" d="M112.9,17.2c-1.2,0-2.3,0-3.5,0c-0.2,0-0.5-0.1-0.6,0.2c-0.1,0.2,0.1,0.4,0.2,0.6c0.8,0.9,1.8,1.5,3,1.7
		c1,0.2,2,0.1,3-0.1c0.4-0.1,0.8-0.2,1.2-0.2c0.7,0,1.1,0.3,1.4,1c0.3,1-0.1,2.1-1,2.7c-0.7,0.5-1.6,0.6-2.4,0.7
		c-1.9,0.2-3.8,0.1-5.6-0.6c-2.9-1.1-4.5-3.2-4.9-6.3c-0.2-1.3-0.1-2.6,0.3-3.8c0.8-2.8,2.6-4.5,5.4-5.1c2.1-0.5,4.2-0.2,6.1,0.8
		c2.4,1.3,3.5,3.4,3.4,6.1c-0.1,1.5-0.9,2.3-2.4,2.3C115.3,17.2,114.1,17.2,112.9,17.2C112.9,17.2,112.9,17.2,112.9,17.2z
		 M111.3,13.8C111.3,13.8,111.3,13.8,111.3,13.8c0.6,0,1.3,0,1.9,0c0.6,0,0.7-0.2,0.5-0.7c-0.1-0.2-0.2-0.3-0.3-0.5
		c-1.2-1.5-3.7-1.1-4.4,0.6c-0.2,0.4-0.1,0.5,0.3,0.5C110,13.8,110.6,13.8,111.3,13.8z"/>
	<path class="st3" d="M29.5,16.4c0-1.4,0-2.8,0-4.3c0-1.4,0.5-2.3,1.7-3c2.1-1.1,4.3-1.6,6.7-1.3C39.3,8,40,8.8,40.2,10
		c0.2,1.1-0.4,1.9-1.5,2.1c-1,0.1-1.9,0.3-2.8,0.5c-0.8,0.2-0.8,0.3-0.8,1.1c0,2.4,0,4.8,0,7.2c0,0.4,0,0.9-0.1,1.3
		c-0.1,0.9-0.6,1.4-1.5,1.4c-0.8,0.1-1.6,0-2.4-0.2c-0.7-0.2-1.1-0.6-1.3-1.3c-0.1-0.4-0.2-0.8-0.2-1.3
		C29.5,19.3,29.5,17.9,29.5,16.4z"/>
	<path class="st4" d="M66.6,1c1.6-0.1,2.8,1.3,2.9,2.7c0,1.5-1.2,2.7-2.8,2.7c-1.5,0.1-2.9-1.1-2.9-2.7C63.8,2.1,65,1,66.6,1z"/>
	<path class="st4" d="M59.8,1c1.6,0,2.9,1.2,2.8,2.7c0,1.5-1.3,2.7-2.9,2.7c-1.6,0-2.8-1.2-2.8-2.7C57,2.1,58.2,1,59.8,1z"/>
	<path class="st3" d="M80.4,33.1c0,0.4,0,0.8,0,1.1c0,0.3-0.1,0.4-0.4,0.4c-0.3,0-0.4-0.2-0.4-0.4c0-0.6,0-1.1,0-1.7
		c0-0.7-0.2-1-0.7-1c-0.5,0-0.8,0.3-0.8,1c0,0.5,0,1.1,0,1.6c0,0.3-0.1,0.4-0.4,0.5c-0.3,0-0.4-0.2-0.4-0.5c0-0.6,0-1.2,0-1.8
		c0-0.7-0.6-0.9-1.1-0.7c-0.3,0.1-0.4,0.4-0.4,0.7c0,0.4,0,0.9,0,1.3c0,0.2,0,0.4,0,0.5c0,0.3-0.1,0.5-0.5,0.5
		c-0.3,0-0.4-0.2-0.4-0.6c0-0.1,0-0.1,0-0.2c0.1-0.8,0.1-1.5,0-2.3c-0.1-0.7,0.1-0.8,0.8-0.6c0.2,0.1,0.3,0,0.5-0.1
		c0.5-0.2,1-0.2,1.5,0.1c0.3,0.1,0.5,0.1,0.7,0c0.3-0.2,0.6-0.2,1-0.2c0.7,0.1,1.1,0.4,1.1,1.1C80.4,32.4,80.4,32.7,80.4,33.1
		C80.4,33.1,80.4,33.1,80.4,33.1z"/>
	<path class="st3" d="M47.3,32c0,0.7,0,1.4,0,2.1c0,0.5-0.1,0.6-0.6,0.6c-0.3,0-0.5,0-0.7,0.1c-1.2,0.2-2.1-0.5-2.2-1.6
		c-0.1-1.2,0.7-2.2,1.9-2.2c0.8,0,0.8,0,0.8-0.8c0-0.2,0-0.3,0-0.5c0-0.3,0.2-0.3,0.4-0.4c0.2,0,0.4,0.1,0.4,0.3c0,0.2,0,0.4,0,0.6
		C47.3,30.8,47.3,31.4,47.3,32C47.3,32,47.3,32,47.3,32z M46.5,32.8C46.5,32.8,46.5,32.8,46.5,32.8c0-0.2,0-0.5,0-0.7
		c0-0.4-0.2-0.6-0.6-0.6c-0.5,0-0.9,0.2-1,0.6c-0.2,0.5-0.1,1.3,0.2,1.6c0.3,0.3,0.6,0.4,1.1,0.2c0.4-0.1,0.4-0.5,0.4-0.9
		C46.5,33,46.5,32.9,46.5,32.8z"/>
	<path class="st3" d="M122.8,1.1c0,1.1-0.9,2-2,2c-1.1,0-2-0.9-2-2c0-1.1,0.9-2,2-2C121.9-1,122.8-0.1,122.8,1.1z M120.8,1.7
		c-0.2,0-0.2,0.1-0.2,0.2c-0.1,0.2-0.2,0.3-0.4,0.2c-0.2-0.1-0.2-0.2-0.3-0.4c0-0.4,0-0.8,0-1.2c0-0.2,0-0.3,0.2-0.4
		c0.2-0.2,1.1-0.1,1.3,0.1c0.3,0.3,0.3,0.6,0.1,0.9c-0.2,0.3,0,0.5,0.3,0.6c0.3,0.1,0.3-0.2,0.4-0.5c0.1-0.7-0.4-1.3-1-1.5
		c-0.6-0.2-1.3,0.1-1.7,0.6c-0.3,0.5-0.2,1.4,0.2,1.8c0.5,0.5,1.1,0.5,1.9,0C121.2,2.2,121.1,1.8,120.8,1.7z"/>
	<path class="st3" d="M55,33c-0.1,0.4,0,0.7,0,1.1c0,0.5-0.1,0.6-0.6,0.5c-0.3-0.1-0.5,0-0.7,0c-0.2,0.1-0.3,0.1-0.5,0.1
		c-0.7,0-1.1-0.3-1.3-0.9c-0.1-0.5,0.2-1.1,0.8-1.4c0.3-0.1,0.6-0.2,1-0.3c0.2,0,0.4-0.1,0.4-0.3c0-0.3-0.2-0.3-0.4-0.3
		c-0.2,0-0.4,0-0.6,0c-0.2,0-0.3,0.1-0.5,0.1c-0.2,0-0.4,0-0.4-0.2c0-0.2,0-0.3,0.2-0.5c0.5-0.3,2-0.2,2.3,0.2
		c0.2,0.2,0.3,0.4,0.3,0.7C55,32.3,55,32.6,55,33z M53.4,34c0.1,0,0.2,0,0.3-0.1c0.4-0.1,0.5-0.3,0.4-0.7C54,32.9,53.8,33,53.5,33
		c-0.1,0-0.2,0-0.3,0.1c-0.3,0.1-0.5,0.2-0.4,0.5C52.8,34,53.1,34,53.4,34z"/>
	<path class="st3" d="M87.8,34.8c-1,0-1.7-0.2-2.1-1c-0.4-0.8-0.3-1.5,0.2-2.2c0.4-0.6,1.2-0.8,1.9-0.6c0.6,0.2,1,0.7,1,1.3
		c0.1,0.6-0.1,0.8-0.7,0.8c-0.5,0-0.9,0-1.4,0c-0.1,0-0.3,0-0.4,0.2c0,0.1,0.1,0.2,0.1,0.3c0.3,0.4,0.7,0.5,1.2,0.5
		c0.2,0,0.4,0,0.6-0.1c0.2,0,0.4,0,0.4,0.2c0,0.2,0,0.3-0.2,0.4C88.3,34.8,88,34.7,87.8,34.8z M87,32.4c0.2,0,0.4,0,0.6-0.1
		c0.2,0,0.4,0,0.4-0.2c0-0.2-0.1-0.4-0.3-0.4c-0.3-0.1-0.6-0.1-0.9,0.1c-0.2,0.1-0.3,0.3-0.2,0.5C86.6,32.4,86.8,32.4,87,32.4z"/>
	<path class="st3" d="M50.1,34.8c-0.9,0-1.6-0.2-2-1.1c-0.3-0.8-0.2-1.5,0.3-2.2c0.5-0.6,1.1-0.7,1.9-0.6c0.6,0.1,0.9,0.6,1,1.2
		c0.1,0.7,0,0.9-0.7,0.9c-0.5,0-0.9,0-1.4,0c-0.4,0-0.4,0.2-0.2,0.5c0.3,0.4,0.7,0.5,1.2,0.5c0.2,0,0.4,0,0.6-0.1
		c0.2,0,0.4,0,0.4,0.2c0,0.2-0.1,0.3-0.2,0.4C50.7,34.8,50.4,34.8,50.1,34.8z M49.4,32.4c0.2,0,0.5-0.1,0.7-0.1
		c0.1,0,0.2-0.1,0.3-0.2c0-0.1,0-0.2-0.1-0.3c-0.3-0.2-0.8-0.2-1.1,0c-0.2,0.1-0.3,0.3-0.2,0.5C49,32.4,49.2,32.4,49.4,32.4z"/>
	<path class="st3" d="M65.7,32.9c0-0.3,0-0.8-0.1-1.3c-0.1-0.5,0.1-0.7,0.6-0.6c0.3,0.1,0.6,0,0.9-0.1c0.3-0.1,0.7-0.1,1,0
		c0.5,0.1,0.9,0.4,0.9,1c0,0.8,0,1.6,0,2.4c0,0.3-0.1,0.4-0.4,0.4c-0.3,0-0.4-0.2-0.4-0.4c0-0.6,0-1.2,0-1.8c0-0.7-0.6-1-1.2-0.7
		c-0.3,0.1-0.4,0.3-0.4,0.7c0,0.6,0,1.2,0,1.8c0,0.2,0,0.4-0.3,0.5c-0.3,0.1-0.5-0.1-0.5-0.4C65.6,33.9,65.7,33.4,65.7,32.9z"/>
	<path class="st3" d="M56.8,34.8c-0.2,0-0.5,0-0.7,0c-0.2,0-0.4-0.1-0.4-0.4c0-0.3,0.2-0.4,0.5-0.4c0.3,0,0.6,0.1,0.8,0.1
		c0.2,0,0.4,0,0.5-0.3c0.1-0.3-0.1-0.4-0.3-0.4c-0.2-0.1-0.5-0.2-0.8-0.4c-0.5-0.3-0.7-0.7-0.7-1.2c0.1-0.5,0.6-0.9,1.2-0.9
		c0.3,0,0.7,0,1,0c0.2,0,0.3,0.2,0.3,0.4c0,0.2-0.1,0.4-0.4,0.4c-0.3,0-0.5-0.1-0.8-0.1c-0.2,0-0.3,0.1-0.3,0.3
		c0,0.2,0.1,0.3,0.2,0.3c0.2,0.1,0.5,0.2,0.8,0.4c0.6,0.3,0.9,0.8,0.7,1.3c-0.1,0.5-0.5,0.8-1.2,0.9C57.1,34.8,56.9,34.8,56.8,34.8
		C56.8,34.8,56.8,34.8,56.8,34.8z"/>
	<path class="st3" d="M61.7,34.8c-0.3,0-0.6,0-0.8-0.1c-0.2,0-0.3-0.2-0.2-0.4c0-0.2,0.1-0.3,0.4-0.3c0.3,0,0.5,0.1,0.8,0.1
		c0.3,0,0.6,0,0.6-0.3c0.1-0.3-0.2-0.4-0.4-0.5c-0.2-0.1-0.5-0.2-0.7-0.4c-0.5-0.3-0.7-0.7-0.5-1.2c0.1-0.5,0.5-0.8,1-0.8
		c0.3,0,0.7,0,1,0c0.3,0,0.5,0.1,0.5,0.5c-0.1,0.3-0.3,0.3-0.5,0.3c-0.2,0-0.4-0.1-0.6-0.1c-0.2,0-0.4,0-0.4,0.2
		c-0.1,0.2,0.1,0.3,0.3,0.4c0.2,0.1,0.5,0.2,0.7,0.3c0.6,0.3,0.9,0.8,0.8,1.3c-0.1,0.6-0.5,0.8-1.3,0.9
		C61.9,34.8,61.8,34.8,61.7,34.8C61.7,34.8,61.7,34.8,61.7,34.8z"/>
	<path class="st3" d="M90.3,34c0.3,0,0.7,0.2,0.9-0.2c0.1-0.5-0.4-0.5-0.7-0.6c-0.2-0.1-0.4-0.2-0.6-0.3c-0.3-0.2-0.5-0.6-0.4-1
		c0.1-0.4,0.3-0.7,0.8-0.9c0.4-0.1,0.9-0.1,1.4,0c0.2,0,0.4,0.2,0.3,0.4c0,0.2-0.2,0.3-0.4,0.3c-0.3,0-0.5-0.1-0.8,0
		c-0.2,0-0.3,0.1-0.3,0.3c0,0.1,0.1,0.2,0.2,0.3c0.3,0.1,0.6,0.3,0.9,0.4c0.5,0.3,0.8,0.7,0.6,1.2c-0.1,0.5-0.5,0.8-1.1,0.9
		c-0.4,0-0.8,0-1.1,0c-0.2,0-0.4-0.1-0.4-0.4c0-0.3,0.2-0.4,0.5-0.3C90,34,90.1,34,90.3,34z"/>
	<path class="st3" d="M84.3,34.8c-0.7,0-1-0.3-1.2-0.9c-0.1-0.5-0.1-1-0.1-1.4c0-0.3,0-0.6-0.4-0.8c-0.3-0.2-0.3-0.5,0-0.7
		c0.3-0.2,0.5-0.4,0.5-0.7c0-0.3,0.1-0.4,0.4-0.4c0.3,0,0.3,0.2,0.3,0.4c0,0.5,0.2,0.6,0.7,0.6c0.2,0,0.3,0.1,0.3,0.3
		c0,0.2-0.1,0.4-0.3,0.4c-0.2,0-0.5,0-0.6,0.2c-0.2,0.2-0.1,0.5-0.1,0.8c0,0.3,0,0.5,0,0.8c0.1,0.4,0.2,0.6,0.7,0.6
		c0.2,0,0.4,0,0.5,0.3c0,0.3-0.2,0.4-0.4,0.4C84.5,34.8,84.4,34.8,84.3,34.8z"/>
	<path class="st3" d="M71.5,31.9c0-0.7,0-1.4,0-2.1c0-0.2,0-0.5,0.3-0.6c0.3-0.1,0.6,0,0.6,0.3c0,0.2,0,0.5,0,0.7
		c-0.1,1.1-0.1,2.1,0,3.2c0,0.2,0,0.5,0,0.7c0,0.3-0.1,0.6-0.5,0.6c-0.4,0-0.5-0.2-0.5-0.6C71.5,33.4,71.5,32.7,71.5,31.9
		C71.5,31.9,71.5,31.9,71.5,31.9z"/>
	<path class="st3" d="M42.8,32.2c0,0.7,0,1.3,0,2c0,0.3-0.1,0.5-0.4,0.5c-0.4,0-0.5-0.2-0.5-0.5c0-0.3,0.1-0.7,0.1-1
		c0-0.9,0.1-1.8,0-2.7c0-0.1,0-0.3,0-0.4c0-0.3,0.2-0.4,0.4-0.4c0.3,0,0.4,0.1,0.4,0.4C42.8,30.8,42.8,31.5,42.8,32.2
		C42.8,32.2,42.8,32.2,42.8,32.2z"/>
	<path class="st3" d="M74.1,32.8c0,0.5,0,0.9,0,1.4c0,0.3-0.1,0.5-0.5,0.5c-0.3,0-0.4-0.2-0.4-0.5c0.1-0.9,0.1-1.8,0-2.6
		c0-0.1,0-0.2,0-0.3c0.1-0.2,0.2-0.3,0.5-0.3c0.2,0,0.4,0.1,0.4,0.3C74.1,31.8,74,32.3,74.1,32.8C74.1,32.8,74.1,32.8,74.1,32.8z"/>
	<path class="st3" d="M64.8,32.8c0,0.5,0,1,0,1.4c0,0.3-0.2,0.5-0.5,0.5c-0.3,0-0.4-0.2-0.4-0.5c0-0.9,0.1-1.9-0.1-2.8
		c0-0.3,0.1-0.5,0.4-0.5c0.3,0,0.5,0.1,0.5,0.4C64.8,31.8,64.8,32.3,64.8,32.8C64.8,32.8,64.8,32.8,64.8,32.8z"/>
	<path class="st3" d="M82,32.8c0,0.4,0,0.9,0,1.3c0,0.3-0.1,0.6-0.5,0.6c-0.3,0-0.4-0.2-0.4-0.5c0-0.9,0.1-1.8-0.1-2.7
		c0-0.4,0.1-0.5,0.5-0.5c0.3,0,0.4,0.2,0.4,0.5C82,31.9,82,32.4,82,32.8C82,32.8,82,32.8,82,32.8z"/>
	<path class="st3" d="M74.4,29.2c0.3,0,0.4,0.2,0.3,0.4c-0.2,0.3-0.5,0.6-0.8,0.9c-0.1,0.1-0.3,0.1-0.4,0c-0.1-0.1-0.1-0.2,0-0.3
		C73.7,29.7,73.7,29.2,74.4,29.2z"/>
	<path class="st3" d="M81.1,29.9c0-0.3,0.3-0.5,0.6-0.5c0.3,0,0.4,0.2,0.5,0.5c0,0.3-0.3,0.6-0.6,0.5C81.3,30.3,81.1,30.1,81.1,29.9
		z"/>
	<path class="st3" d="M64.9,29.8c0,0.3-0.2,0.6-0.5,0.6c-0.3,0-0.5-0.2-0.5-0.5c0-0.3,0.2-0.5,0.5-0.5
		C64.7,29.4,64.9,29.5,64.9,29.8z"/>
</g>
</svg>
